<?xml version="1.0" encoding="UTF-8" standalone="no"?>
<!-- Created with Inkscape (http://www.inkscape.org/) -->

<svg
   xmlns:dc="http://purl.org/dc/elements/1.1/"
   xmlns:cc="http://creativecommons.org/ns#"
   xmlns:rdf="http://www.w3.org/1999/02/22-rdf-syntax-ns#"
   xmlns:svg="http://www.w3.org/2000/svg"
   xmlns="http://www.w3.org/2000/svg"
   xmlns:sodipodi="http://sodipodi.sourceforge.net/DTD/sodipodi-0.dtd"
   xmlns:inkscape="http://www.inkscape.org/namespaces/inkscape"
   width="16.367939mm"
   height="16.367939mm"
   viewBox="0 0 57.996634 57.996633"
   id="svg2"
   version="1.1"
   inkscape:version="0.91 r13725"
   sodipodi:docname="einstein2.svg"
   inkscape:export-filename="/home/hans/development/crypto/script-sandbox/app/assets/img/einstein.png"
   inkscape:export-xdpi="310.36282"
   inkscape:export-ydpi="310.36282">
  <defs
     id="defs4" />
  <sodipodi:namedview
     id="base"
     pagecolor="#ffffff"
     bordercolor="#666666"
     borderopacity="1.0"
     inkscape:pageopacity="0.0"
     inkscape:pageshadow="2"
     inkscape:zoom="9.4143394"
     inkscape:cx="28.998317"
     inkscape:cy="28.998317"
     inkscape:document-units="px"
     inkscape:current-layer="layer1"
     showgrid="false"
     inkscape:window-width="1366"
     inkscape:window-height="732"
     inkscape:window-x="0"
     inkscape:window-y="17"
     inkscape:window-maximized="1"
     fit-margin-top="0"
     fit-margin-left="0"
     fit-margin-right="0"
     fit-margin-bottom="0" />
  <metadata
     id="metadata7">
    <rdf:RDF>
      <cc:Work
         rdf:about="">
        <dc:format>image/svg+xml</dc:format>
        <dc:type
           rdf:resource="http://purl.org/dc/dcmitype/StillImage" />
        <dc:title></dc:title>
      </cc:Work>
    </rdf:RDF>
  </metadata>
  <g
     inkscape:groupmode="layer"
     id="layer2"
     inkscape:label="Layer 2"
     transform="translate(2.8711224,2.707056)"
     sodipodi:insensitive="true">
    <circle
       style="opacity:0.99299999;fill:#2c3e50;fill-opacity:1;stroke:none;stroke-width:10;stroke-miterlimit:4;stroke-dasharray:none;stroke-opacity:1"
       id="path5356"
       cx="26.127193"
       cy="26.29126"
       r="28.998316" />
  </g>
  <g
     inkscape:label="Layer 1"
     inkscape:groupmode="layer"
     id="layer1"
     transform="translate(2.862501,1.4965348)">
    <path
       style="color:#000000;line-height:normal;font-family:Sans;-inkscape-font-specification:Sans;text-indent:0;text-align:start;text-transform:none;block-progression:tb;overflow:visible;fill:#fafafa;fill-opacity:1"
       d="m 17.537457,5.1152698 a 1.0001,1.0001 0 0 0 -0.5625,0.28125 c -0.695365,0.6619167 -1.867193,2.0205569 -2.9375,3.28125 -0.940639,1.1079592 -1.562204,1.8689482 -1.75,2.0937502 a 1.0001,1.0001 0 0 0 -0.09375,0.0625 c 0,0 -5.5346544,5.278457 -7.84375,10.53125 a 1.0001,1.0001 0 0 0 0.4375,1.28125 c 1.6830416,0.927539 3.6261726,2.060751 5.5,3.46875 -3.338554,1.463887 -6.7051769,4.509596 -9,8.15625 a 1.0001,1.0001 0 0 0 0.03125,1.09375 c 1.5058072,2.173011 4.78125,7.53125 4.78125,7.53125 a 1.0001,1.0001 0 0 0 1.59375,0.125 c 0,0 0.9699586,-0.816883 1.4374996,-1.28125 -0.0015,0.02883 0.0014,0.06525 0,0.09375 -0.04671,0.924985 -0.03125,1.65625 -0.03125,1.65625 a 1.0001,1.0001 0 0 0 0.78125,0.9375 l 5.5000004,1.28125 a 1.0083877,1.0083877 0 0 0 0.15625,0.03125 c 0.0058,0.0052 0.02546,-0.0052 0.03125,0 1.541394,1.391275 3.997545,2.548849 7.75,2.9375 0.737489,0.716363 1.696747,1.21875 2.8125,1.21875 1.108104,0 2.045026,-0.510181 2.78125,-1.21875 3.802857,-0.377225 6.300939,-1.507053 7.84375,-2.90625 a 1.0001,1.0001 0 0 0 0.40625,-0.125 l 5.1875,-2 a 1.0001,1.0001 0 0 0 0.65625,-0.96875 c 0,0 -0.121649,-0.998067 -0.375,-2.28125 0.217761,0.133121 0.392506,0.211865 0.59375,0.34375 0.816608,0.535161 1.4375,1 1.4375,1 a 1.0001,1.0001 0 0 0 1.375,-0.15625 c 0,0 2.534928,-2.991041 4.875,-5.9375 a 1.0001,1.0001 0 0 0 0,-1.25 c -0.964316,-1.254939 -2.429892,-2.194861 -3.8125,-3 l 1.46875,-0.03125 a 1.0001,1.0001 0 0 0 0.96875,-1.1875 l -0.90625,-4.875 a 1.0001,1.0001 0 0 0 -1,-0.8125 c 0,0 -1.788496,0.02382 -3,0.03125 0.850938,-0.510144 2.1875,-1.4375 2.1875,-1.4375 a 1.0001,1.0001 0 0 0 0.40625,-1.34375 c 0,0 -1.28515,-2.35231 -2.78125,-4.84375 -0.74805,-1.24572 -1.545485,-2.533516 -2.28125,-3.59375 -0.735765,-1.060234 -1.260351,-1.841248 -2.03125,-2.34375 a 1.0001,1.0001 0 0 0 -0.875,-0.125 c -1.152413,0.390712 -2.107704,0.869797 -2.90625,1.375 0.01137,-0.02202 0.15625,-0.375 0.15625,-0.375 a 1.0001,1.0001 0 0 0 -0.09375,-1.0625 c 0,0 -0.437338,-0.595513 -1.03125,-1.3125002 -0.593912,-0.7169868 -1.307902,-1.5324831 -2.03125,-2.0625 a 1.0001,1.0001 0 0 0 -0.5625,-0.21875 1.0001,1.0001 0 0 0 -0.5625,0.15625 c -0.826183,0.5165467 -1.535234,1.1307838 -2.15625,1.8125 0.0118,-1.0332684 0.03125,-1.78125 0.03125,-1.78125 a 1.0001,1.0001 0 0 0 -0.96875,-1.0625 l -5.625,-0.21875 a 1.0001,1.0001 0 0 0 -1,1.1875 l 0.4375,2.3125 c -0.02869,-0.03587 -0.03356,-0.026546 -0.0625,-0.0625 -0.744339,-0.9248318 -1.583049,-1.8663886 -2.40625,-2.65625 -0.823201,-0.7898614 -1.580962,-1.4529515 -2.53125,-1.71875 a 1.0001,1.0001 0 0 0 -0.40625,-0.03125 z m 0.3125,2.28125 c 0.345492,0.1952016 0.713655,0.3916271 1.25,0.90625 0.723112,0.6938261 1.507339,1.5848318 2.21875,2.4687502 1.422821,1.767837 2.5625,3.46875 2.5625,3.46875 a 1.0001,1.0001 0 0 0 1.8125,-0.75 l -1.03125,-5.3437502 3.4375,0.125 c -0.02162,0.7380893 -0.08782,2.0639132 0,4.0312502 a 1.0004882,1.0004882 0 0 0 0,0.09375 c -0.19605,0.535659 -0.360596,1.080107 -0.46875,1.65625 a 1.002073,1.002073 0 1 0 1.96875,0.375 c 0.383499,-2.042933 1.485841,-3.604835 3.125,-4.8437502 0.364687,0.3598663 0.72919,0.6848932 1.09375,1.1250002 0.346617,0.418446 0.452749,0.554924 0.625,0.78125 -0.237024,0.460936 -1.175121,2.240526 -2.34375,4.9375 a 1.0001,1.0001 0 0 0 1.59375,1.15625 c 0.728527,-0.679472 1.218486,-1.538501 2.09375,-2.40625 0.777474,-0.770799 1.924364,-1.538665 3.5625,-2.1875 0.248632,0.259416 0.637124,0.675661 1.1875,1.46875 0.69261,0.998047 1.45255,2.244845 2.1875,3.46875 1.207254,2.010429 1.906562,3.283239 2.25,3.90625 -0.980238,0.544333 -2.803626,1.601836 -4.375,2.96875 a 1.0001,1.0001 0 0 0 0.6875,1.75 c 1.813901,-0.06228 4.671687,-0.06129 5.53125,-0.0625 l 0.53125,2.90625 -4.1875,0.0625 a 1.0001,1.0001 0 0 0 -0.375,1.9375 c 0,0 1.235731,0.512676 2.6875,1.3125 1.217612,0.67082 2.390393,1.576603 3.25,2.4375 -1.75729,2.180816 -3.239199,3.972985 -3.65625,4.46875 -0.275387,-0.194974 -0.321416,-0.250379 -0.75,-0.53125 -0.869142,-0.569589 -1.922283,-1.216336 -2.875,-1.5625 a 1.0001,1.0001 0 0 0 -1.28125,1.28125 c 0.647921,1.79478 0.659673,2.818291 0.6875,3.28125 l -2.1875,0.84375 c 0.365062,-0.971578 0.46875,-1.825613 0.46875,-2.34375 0,-1.096814 -0.557521,-2.352982 -1.09375,-4.03125 0.912915,-0.653604 1.625,-1.577671 1.625,-2.78125 0,-1.75063 -1.306176,-3.180324 -2.96875,-3.5 -0.315411,-2.098978 -0.5625,-4.450681 -0.5625,-7.375 a 1.0001,1.0001 0 0 0 -0.34375,-0.75 c 0,0 -3.822486,-3.25 -9.65625,-3.25 a 1.0001,1.0001 0 0 0 -0.09375,0 1.0001,1.0001 0 0 0 -0.25,0.0625 c -4.834947,1.695668 -8.96875,2.96875 -8.96875,2.96875 a 1.0001,1.0001 0 0 0 -0.6875,0.96875 c 0,2.810694 -0.310325,5.219815 -0.6875,7.40625 -1.600404,0.368165 -2.84375,1.762574 -2.84375,3.46875 0,1.148648 0.655471,2.056739 1.5,2.71875 -0.479898,1.660925 -0.96875,3.018108 -0.96875,4.09375 0,0.589336 0.09812,1.586931 0.59375,2.6875 l -2.59375,-0.59375 c 7.46e-4,-0.271158 -0.02126,-0.328925 0,-0.75 0.04254,-0.842515 0.158072,-1.875639 0.34375,-2.40625 A 1.0001,1.0001 0 0 0 9.9749566,38.36527 c -1.227224,0.81836 -2.1848408,1.68251 -2.8749996,2.375 -0.6406219,-1.042893 -2.3241384,-3.775458 -3.75,-5.90625 2.483948,-3.681044 6.3234106,-6.769667 9.21875,-7.5 a 1.0001,1.0001 0 0 0 0.40625,-1.71875 c -2.15879,-1.921671 -4.4170744,-3.16446 -6.34375,-4.21875 2.0421276,-4.006254 5.747151,-7.871276 6.46875,-8.59375 0.728287,0.330832 3.215527,1.550741 5.875,5.125 a 1.0001,1.0001 0 1 0 1.59375,-1.1875 c -2.212318,-2.973295 -4.634382,-4.654736 -6.0625,-5.46875 0.365323,-0.436997 0.486671,-0.602993 1.0625,-1.2812502 0.869499,-1.0241655 1.681201,-1.9598036 2.28125,-2.59375 z m 8.40625,13.5000002 c 4.674034,0.04477 7.49822,2.234847 7.90625,2.5625 0.0336,3.043146 0.266268,5.699712 0.625,7.875 a 1.0001,1.0001 0 0 0 1.09375,0.84375 c 0.157633,-0.01594 0.197118,-0.03125 0.15625,-0.03125 0.900635,0 1.625,0.724365 1.625,1.625 0,0.705227 -0.466328,1.275743 -1.09375,1.5 a 1.0001,1.0001 0 0 0 -0.625,1.21875 c 0.658178,2.267398 1.1875,3.815705 1.1875,4.09375 0,0.53777 -0.151768,1.896743 -1.25,3.1875 -1.098232,1.290757 -3.188856,2.640035 -7.4375,3 a 1.0001,1.0001 0 0 0 -0.6875,0.34375 c -0.398109,0.47995 -0.965598,0.78125 -1.625,0.78125 -0.663254,0 -1.226767,-0.297681 -1.625,-0.78125 a 1.0001,1.0001 0 0 0 -0.6875,-0.375 c -4.205692,-0.374191 -6.329431,-1.710022 -7.4375,-3 -1.108069,-1.289978 -1.25,-2.638999 -1.25,-3.15625 0,-0.48725 0.452043,-2.062426 1.03125,-4.15625 a 1.0001,1.0001 0 0 0 -0.59375,-1.1875 c -0.57044,-0.246144 -0.96875,-0.798226 -0.96875,-1.46875 0,-0.880334 0.690206,-1.593353 1.5625,-1.625 0.0085,0.0065 0.0442,0.0261 0.125,0.03125 a 1.0001,1.0001 0 0 0 1.0625,-0.8125 c 0.41011,-2.20864 0.665562,-4.853607 0.71875,-7.71875 0.509318,-0.160211 3.8037,-1.219183 8.1875,-2.75 z m -2.3125,5.0625 a 1.0001,1.0001 0 0 0 -0.09375,0.03125 1.0001,1.0001 0 0 0 -0.25,0.09375 l -4.1875,2.09375 a 1.0001,1.0001 0 1 0 0.90625,1.78125 l 4.1875,-2.09375 a 1.0001,1.0001 0 0 0 -0.5625,-1.90625 z m 4.125,1.0625 a 1.0001,1.0001 0 0 0 -0.09375,1.96875 l 4.1875,1.0625 a 1.0001,1.0001 0 1 0 0.46875,-1.9375 l -4.15625,-1.0625 a 1.0001,1.0001 0 0 0 -0.40625,-0.03125 z m -6.21875,5 c -0.64783,0 -1.1875,0.50842 -1.1875,1.15625 0,0.64783 0.53967,1.1875 1.1875,1.1875 0.64783,0 1.15625,-0.53967 1.15625,-1.1875 0,-0.64783 -0.50842,-1.15625 -1.15625,-1.15625 z m 8.1875,0 c -0.64783,0 -1.15625,0.50842 -1.15625,1.15625 0,0.64783 0.50842,1.1875 1.15625,1.1875 0.64783,0 1.1875,-0.53967 1.1875,-1.1875 0,-0.64783 -0.53967,-1.15625 -1.1875,-1.15625 z m -7.03125,5.40625 c -4.822,1.174 -5.21875,5.21875 -5.21875,5.21875 l 16.6875,0 c 0,0 0.05725,-3.82675 -5.21875,-5.21875 0,0 -1.069,2.0625 -3.125,2.0625 -2.056,0 -3.125,-2.0625 -3.125,-2.0625 z"
       overflow="visible"
       id="path4207"
       inkscape:connector-curvature="0" />
  </g>
</svg>
